# xmcd
#
# Track frame offsets:
# 150
# 21602
# 38641
# 60384
# 82493
# 100855
# 114675
# 135206
# 149221
# 171892
#
# Disc length: 2518 seconds
#
# Revision: 0
# Processed by: cddbd v1.5.1PL0 Copyright (c) Steve Scherf et al.
# Submitted via: Audion 3.0.2 (http://www.panic.com/audion/)
#
DISCID=9009d40a
DTITLE=Lack - Be There Pulse
DYEAR=1900
DGENRE=
TTITLE0=Marathon Man
TTITLE1=5 O'Clock in the Evening
TTITLE2=Primo Levi
TTITLE3=Deserters
TTITLE4=New American Centrury.org
TTITLE5=Soot, Smoke and Ash
TTITLE6=Disburden
TTITLE7=Simonix
TTITLE8=Ritornello
TTITLE9=The Gay Revolutions
EXTD=
EXTT0=
EXTT1=
EXTT2=
EXTT3=
EXTT4=
EXTT5=
EXTT6=
EXTT7=
EXTT8=
EXTT9=
PLAYORDER=
